# Blender v2.79 (sub 0) OBJ File: 'ad-wall3.blend'
# www.blender.org
mtllib ad-wall3.mtl
o Cube.002_Cube.000
v -0.390329 0.077139 4.894014
v 1.429487 0.077138 4.894014
v 1.429488 3.045488 4.894014
v -0.390328 3.045489 4.894014
v 1.429487 0.077138 4.946817
v 1.429488 3.045488 4.946817
v -0.390329 0.077139 4.946817
v -0.390328 3.045489 4.946817
vn -0.0000 0.0000 -1.0000
vn 1.0000 -0.0000 0.0000
vn 0.0000 0.0000 1.0000
vn -1.0000 0.0000 0.0000
vn -0.0000 -1.0000 0.0000
vn 0.0000 1.0000 0.0000
usemtl None
s 1
f 1//1 4//1 3//1 2//1
f 2//2 3//2 6//2 5//2
f 5//3 6//3 8//3 7//3
f 7//4 8//4 4//4 1//4
f 2//5 5//5 7//5 1//5
f 6//6 3//6 4//6 8//6
o Cube.000_Cube.002
v -0.426252 0.083607 -5.503299
v 1.393564 0.083607 -5.503299
v 1.393564 3.051957 -5.503299
v -0.426252 3.051957 -5.503299
v 1.393564 0.083607 -5.450496
v 1.393564 3.051957 -5.450496
v -0.426252 0.083607 -5.450496
v -0.426252 3.051957 -5.450496
vn 0.0000 0.0000 -1.0000
vn 1.0000 -0.0000 0.0000
vn 0.0000 0.0000 1.0000
vn -1.0000 0.0000 0.0000
vn -0.0000 -1.0000 0.0000
vn 0.0000 1.0000 0.0000
usemtl None
s 1
f 9//7 12//7 11//7 10//7
f 10//8 11//8 14//8 13//8
f 13//9 14//9 16//9 15//9
f 15//10 16//10 12//10 9//10
f 10//11 13//11 15//11 9//11
f 14//12 11//12 12//12 16//12
o Cube.001
v 1.439205 0.083607 4.895618
v 1.439205 0.083608 -5.502370
v 1.439205 3.051958 -5.502369
v 1.439205 3.051957 4.895619
v 1.386402 0.083608 -5.502370
v 1.386402 3.051958 -5.502369
v 1.386402 0.083607 4.895618
v 1.386402 3.051957 4.895619
vn 1.0000 0.0000 0.0000
vn 0.0000 0.0000 -1.0000
vn -1.0000 0.0000 0.0000
vn 0.0000 -0.0000 1.0000
vn 0.0000 -1.0000 -0.0000
vn 0.0000 1.0000 0.0000
usemtl None
s 1
f 17//13 18//13 19//13 20//13
f 18//14 21//14 22//14 19//14
f 21//15 23//15 24//15 22//15
f 23//16 17//16 20//16 24//16
f 18//17 17//17 23//17 21//17
f 22//18 24//18 20//18 19//18
