# Blender v2.79 (sub 0) OBJ File: 'ad-wall-sm.blend'
# www.blender.org
mtllib ad-wall-sm.mtl
o Cube.000_Cube.002
v 1.406092 0.083607 4.851131
v 3.225908 0.083607 4.851131
v 3.225909 3.051957 4.851131
v 1.406092 3.051957 4.851131
v 3.225908 0.083607 4.903934
v 3.225909 3.051957 4.903934
v 1.406092 0.083607 4.903934
v 1.406092 3.051957 4.903934
vn -0.0000 0.0000 -1.0000
vn 1.0000 -0.0000 0.0000
vn 0.0000 0.0000 1.0000
vn -1.0000 0.0000 0.0000
vn -0.0000 -1.0000 0.0000
vn 0.0000 1.0000 0.0000
usemtl None
s 1
f 1//1 4//1 3//1 2//1
f 2//2 3//2 6//2 5//2
f 5//3 6//3 8//3 7//3
f 7//4 8//4 4//4 1//4
f 2//5 5//5 7//5 1//5
f 6//6 3//6 4//6 8//6
o Cube.001
v 1.458758 0.083607 4.892917
v 1.458758 0.083608 -1.520795
v 1.458758 3.051958 -1.520795
v 1.458758 3.051957 4.892918
v 1.405955 0.083608 -1.520795
v 1.405955 3.051958 -1.520795
v 1.405955 0.083607 4.892917
v 1.405955 3.051957 4.892918
vn 1.0000 0.0000 0.0000
vn 0.0000 0.0000 -1.0000
vn -1.0000 0.0000 0.0000
vn 0.0000 -0.0000 1.0000
vn 0.0000 -1.0000 -0.0000
vn 0.0000 1.0000 0.0000
usemtl None
s 1
f 9//7 10//7 11//7 12//7
f 10//8 13//8 14//8 11//8
f 13//9 15//9 16//9 14//9
f 15//10 9//10 12//10 16//10
f 10//11 9//11 15//11 13//11
f 14//12 16//12 12//12 11//12
