# Blender v2.79 (sub 0) OBJ File: 'plane-trial.blend'
# www.blender.org
mtllib plane-trial2.mtl
o Cube.003
v 14.547568 0.192667 -27.910418
v 14.547568 18.480667 -27.910418
v 14.547568 0.192667 -29.558332
v 14.547568 18.480667 -29.558332
v 20.164946 0.192667 -27.910418
v 20.164946 18.480667 -27.910418
v 20.164946 0.192667 -29.558332
v 20.164946 18.480667 -29.558332
vt 0.000000 0.000000
vt 1.000000 0.000000
vt 1.000000 1.000000
vt 0.000000 1.000000
vt 0.000000 0.000000
vt 1.000000 0.000000
vt 1.000000 1.000000
vt 0.000000 1.000000
vt 0.000000 0.000000
vt 1.000000 0.000000
vt 1.000000 1.000000
vt 0.000000 1.000000
vt 0.000000 0.000000
vt 1.000000 0.000000
vt 1.000000 1.000000
vt 0.000000 1.000000
vt 1.000000 0.000000
vt 1.000000 1.000000
vt 0.000000 0.000000
vt 0.000000 1.000000
vn -1.0000 0.0000 0.0000
vn 0.0000 0.0000 -1.0000
vn 1.0000 0.0000 0.0000
vn 0.0000 0.0000 1.0000
vn 0.0000 -1.0000 0.0000
vn 0.0000 1.0000 0.0000
usemtl Material.002
s off
f 1/1/1 2/2/1 4/3/1 3/4/1
f 3/5/2 4/6/2 8/7/2 7/8/2
f 7/9/3 8/10/3 6/11/3 5/12/3
f 5/13/4 6/14/4 2/15/4 1/16/4
f 3/5/5 7/17/5 5/18/5 1/16/5
f 8/19/6 4/6/6 2/15/6 6/20/6
o Cube.002
v -11.020931 0.317152 -27.942198
v -11.020931 18.605152 -27.942198
v -11.020931 0.317152 -29.590113
v -11.020931 18.605152 -29.590113
v -5.403555 0.317152 -27.942198
v -5.403555 18.605152 -27.942198
v -5.403555 0.317152 -29.590113
v -5.403555 18.605152 -29.590113
vt 0.000000 0.000000
vt 1.000000 0.000000
vt 1.000000 1.000000
vt 0.000000 1.000000
vt 0.000000 0.000000
vt 1.000000 0.000000
vt 1.000000 1.000000
vt 0.000000 1.000000
vt 0.000000 0.000000
vt 1.000000 0.000000
vt 1.000000 1.000000
vt 0.000000 1.000000
vt 0.000000 0.000000
vt 1.000000 0.000000
vt 1.000000 1.000000
vt 0.000000 1.000000
vt 1.000000 0.000000
vt 1.000000 1.000000
vt 0.000000 0.000000
vt 0.000000 1.000000
vn -1.0000 0.0000 0.0000
vn 0.0000 0.0000 -1.0000
vn 1.0000 0.0000 0.0000
vn 0.0000 0.0000 1.0000
vn 0.0000 -1.0000 0.0000
vn 0.0000 1.0000 0.0000
usemtl Material.002
s off
f 9/21/7 10/22/7 12/23/7 11/24/7
f 11/25/8 12/26/8 16/27/8 15/28/8
f 15/29/9 16/30/9 14/31/9 13/32/9
f 13/33/10 14/34/10 10/35/10 9/36/10
f 11/25/11 15/37/11 13/38/11 9/36/11
f 16/39/12 12/26/12 10/35/12 14/40/12
o Cube.001
v -30.549770 0.144098 -29.595667
v -30.549770 18.432098 -29.595667
v -30.549770 0.144098 -30.510065
v -30.549770 18.432098 -30.510065
v 30.410229 0.144098 -29.595667
v 30.410229 18.432098 -29.595667
v 30.410229 0.144098 -30.510065
v 30.410229 18.432098 -30.510065
vt 0.000000 0.000000
vt 1.000000 0.000000
vt 1.000000 1.000000
vt 0.000000 1.000000
vt 0.000000 0.000000
vt 1.000000 0.000000
vt 1.000000 1.000000
vt 0.000000 1.000000
vt 0.000000 0.000000
vt 1.000000 0.000000
vt 1.000000 1.000000
vt 0.000000 1.000000
vt 0.000000 0.000000
vt 1.000000 0.000000
vt 1.000000 1.000000
vt 0.000000 1.000000
vt 1.000000 0.000000
vt 1.000000 1.000000
vt 0.000000 0.000000
vt 0.000000 1.000000
vn -1.0000 0.0000 0.0000
vn 0.0000 0.0000 -1.0000
vn 1.0000 0.0000 0.0000
vn 0.0000 0.0000 1.0000
vn 0.0000 -1.0000 0.0000
vn 0.0000 1.0000 0.0000
usemtl Material.002
s off
f 17/41/13 18/42/13 20/43/13 19/44/13
f 19/45/14 20/46/14 24/47/14 23/48/14
f 23/49/15 24/50/15 22/51/15 21/52/15
f 21/53/16 22/54/16 18/55/16 17/56/16
f 19/45/17 23/57/17 21/58/17 17/56/17
f 24/59/18 20/46/18 18/55/18 22/60/18
o Cube
v 30.479984 -0.109126 -30.479982
v 30.479984 -0.109126 30.479984
v -30.479988 -0.109126 30.479979
v -30.479973 -0.109126 -30.479996
v 30.480000 0.109126 -30.479967
v 30.479965 0.109126 30.480003
v -30.479996 0.109126 30.479973
v -30.479982 0.109126 -30.479984
vt 0.000000 0.000000
vt 1.000000 0.000000
vt 1.000000 1.000000
vt 0.000000 1.000000
vt 0.000000 0.000000
vt 1.000000 0.000000
vt 1.000000 1.000000
vt 0.000000 1.000000
vt 1.000000 0.000000
vt 1.000000 1.000000
vt 0.000000 1.000000
vt 0.000000 0.000000
vt 1.000000 0.000000
vt 0.000000 1.000000
vt 0.000000 0.000000
vt 1.000000 0.000000
vt 1.000000 1.000000
vt 1.000000 0.000000
vt 1.000000 1.000000
vt 0.000000 1.000000
vn 0.0000 -1.0000 -0.0000
vn 0.0000 1.0000 0.0000
vn 1.0000 0.0000 0.0000
vn -0.0000 -0.0000 1.0000
vn -1.0000 -0.0000 -0.0000
vn 0.0000 0.0001 -1.0000
usemtl Material.001
s off
f 25/61/19 26/62/19 27/63/19 28/64/19
f 29/65/20 32/66/20 31/67/20 30/68/20
f 25/61/21 29/69/21 30/70/21 26/71/21
f 26/72/22 30/73/22 31/67/22 27/74/22
f 27/75/23 31/76/23 32/77/23 28/64/23
f 29/65/24 25/78/24 28/79/24 32/80/24
