# Blender v2.79 (sub 0) OBJ File: 'plane-trial1.blend'
# www.blender.org
mtllib plane-trial5.mtl
o Cube.004_Cube.006
v -14.773477 0.089561 28.105349
v -14.773477 18.377560 28.105349
v -14.773477 0.089561 29.753263
v -14.773477 18.377560 29.753263
v -20.390854 0.089561 28.105349
v -20.390854 18.377560 28.105349
v -20.390854 0.089561 29.753263
v -20.390854 18.377560 29.753263
v 10.795021 0.214046 28.137123
v 10.795021 18.502045 28.137123
v 10.795021 0.214046 29.785040
v 10.795021 18.502045 29.785040
v 5.177647 0.214046 28.137125
v 5.177647 18.502045 28.137125
v 5.177647 0.214046 29.785040
v 5.177647 18.502045 29.785040
v 30.323860 0.040992 29.790590
v 30.323860 18.328991 29.790590
v 30.323860 0.040992 30.704990
v 30.323860 18.328991 30.704990
v -30.636135 0.040992 29.790596
v -30.636135 18.328991 29.790596
v -30.636135 0.040992 30.704996
v -30.636135 18.328991 30.704996
vt 0.000000 0.000000
vt 1.000000 0.000000
vt 1.000000 1.000000
vt 0.000000 1.000000
vt 0.000000 0.000000
vt 1.000000 0.000000
vt 1.000000 1.000000
vt 0.000000 1.000000
vt 0.000000 0.000000
vt 1.000000 0.000000
vt 1.000000 1.000000
vt 0.000000 1.000000
vt 0.000000 0.000000
vt 1.000000 0.000000
vt 1.000000 1.000000
vt 0.000000 1.000000
vt 1.000000 0.000000
vt 1.000000 1.000000
vt 0.000000 0.000000
vt 0.000000 1.000000
vt 0.000000 0.000000
vt 1.000000 0.000000
vt 1.000000 1.000000
vt 0.000000 1.000000
vt 0.000000 0.000000
vt 1.000000 0.000000
vt 1.000000 1.000000
vt 0.000000 1.000000
vt 0.000000 0.000000
vt 1.000000 0.000000
vt 1.000000 1.000000
vt 0.000000 1.000000
vt 0.000000 0.000000
vt 1.000000 0.000000
vt 1.000000 1.000000
vt 0.000000 1.000000
vt 1.000000 0.000000
vt 1.000000 1.000000
vt 0.000000 0.000000
vt 0.000000 1.000000
vt 0.000000 0.000000
vt 1.000000 0.000000
vt 1.000000 1.000000
vt 0.000000 1.000000
vt 0.000000 0.000000
vt 1.000000 0.000000
vt 1.000000 1.000000
vt 0.000000 1.000000
vt 0.000000 0.000000
vt 1.000000 0.000000
vt 1.000000 1.000000
vt 0.000000 1.000000
vt 0.000000 0.000000
vt 1.000000 0.000000
vt 1.000000 1.000000
vt 0.000000 1.000000
vt 1.000000 0.000000
vt 1.000000 1.000000
vt 0.000000 0.000000
vt 0.000000 1.000000
vn 1.0000 0.0000 0.0000
vn 0.0000 0.0000 1.0000
vn -1.0000 0.0000 0.0000
vn 0.0000 0.0000 -1.0000
vn 0.0000 -1.0000 0.0000
vn 0.0000 1.0000 0.0000
usemtl Material.002
s off
f 1/1/1 2/2/1 4/3/1 3/4/1
f 3/5/2 4/6/2 8/7/2 7/8/2
f 7/9/3 8/10/3 6/11/3 5/12/3
f 5/13/4 6/14/4 2/15/4 1/16/4
f 3/5/5 7/17/5 5/18/5 1/16/5
f 8/19/6 4/6/6 2/15/6 6/20/6
f 9/21/1 10/22/1 12/23/1 11/24/1
f 11/25/2 12/26/2 16/27/2 15/28/2
f 15/29/3 16/30/3 14/31/3 13/32/3
f 13/33/4 14/34/4 10/35/4 9/36/4
f 11/25/5 15/37/5 13/38/5 9/36/5
f 16/39/6 12/26/6 10/35/6 14/40/6
f 17/41/1 18/42/1 20/43/1 19/44/1
f 19/45/2 20/46/2 24/47/2 23/48/2
f 23/49/3 24/50/3 22/51/3 21/52/3
f 21/53/4 22/54/4 18/55/4 17/56/4
f 19/45/5 23/57/5 21/58/5 17/56/5
f 24/59/6 20/46/6 18/55/6 22/60/6
o Cube.002_Cube.005
v 86.316338 0.550554 43.982491
v 86.316338 55.414551 43.982491
v 91.260078 0.550554 43.982491
v 91.260078 55.414551 43.982491
v 86.316338 0.550554 60.834625
v 86.316338 55.414551 60.834625
v 91.260078 0.550554 60.834625
v 91.260078 55.414551 60.834625
v 86.411674 0.924009 -32.723003
v 86.411674 55.788010 -32.723003
v 91.355423 0.924009 -32.723003
v 91.355423 55.788010 -32.723003
v 86.411674 0.924009 -15.870876
v 86.411674 55.788010 -15.870876
v 91.355423 0.924009 -15.870876
v 91.355423 55.788010 -15.870876
v 91.372078 0.404848 -91.309525
v 91.372078 55.268845 -91.309525
v 94.115280 0.404848 -91.309525
v 94.115280 55.268845 -91.309525
v 91.372070 0.404848 91.570465
v 91.372070 55.268845 91.570465
v 94.115273 0.404848 91.570465
v 94.115273 55.268845 91.570465
vt 0.000000 0.000000
vt 1.000000 0.000000
vt 1.000000 1.000000
vt 0.000000 1.000000
vt 0.000000 0.000000
vt 1.000000 0.000000
vt 1.000000 1.000000
vt 0.000000 1.000000
vt 0.000000 0.000000
vt 1.000000 0.000000
vt 1.000000 1.000000
vt 0.000000 1.000000
vt 0.000000 0.000000
vt 1.000000 0.000000
vt 1.000000 1.000000
vt 0.000000 1.000000
vt 1.000000 0.000000
vt 1.000000 1.000000
vt 0.000000 0.000000
vt 0.000000 1.000000
vt 0.000000 0.000000
vt 1.000000 0.000000
vt 1.000000 1.000000
vt 0.000000 1.000000
vt 0.000000 0.000000
vt 1.000000 0.000000
vt 1.000000 1.000000
vt 0.000000 1.000000
vt 0.000000 0.000000
vt 1.000000 0.000000
vt 1.000000 1.000000
vt 0.000000 1.000000
vt 0.000000 0.000000
vt 1.000000 0.000000
vt 1.000000 1.000000
vt 0.000000 1.000000
vt 1.000000 0.000000
vt 1.000000 1.000000
vt 0.000000 0.000000
vt 0.000000 1.000000
vt 0.000000 0.000000
vt 1.000000 0.000000
vt 1.000000 1.000000
vt 0.000000 1.000000
vt 0.000000 0.000000
vt 1.000000 0.000000
vt 1.000000 1.000000
vt 0.000000 1.000000
vt 0.000000 0.000000
vt 1.000000 0.000000
vt 1.000000 1.000000
vt 0.000000 1.000000
vt 0.000000 0.000000
vt 1.000000 0.000000
vt 1.000000 1.000000
vt 0.000000 1.000000
vt 1.000000 0.000000
vt 1.000000 1.000000
vt 0.000000 0.000000
vt 0.000000 1.000000
vn 0.0000 0.0000 -1.0000
vn 1.0000 0.0000 0.0000
vn 0.0000 0.0000 1.0000
vn -1.0000 0.0000 0.0000
vn 0.0000 -1.0000 0.0000
vn 0.0000 1.0000 0.0000
usemtl Material.002
s off
f 25/61/7 26/62/7 28/63/7 27/64/7
f 27/65/8 28/66/8 32/67/8 31/68/8
f 31/69/9 32/70/9 30/71/9 29/72/9
f 29/73/10 30/74/10 26/75/10 25/76/10
f 27/65/11 31/77/11 29/78/11 25/76/11
f 32/79/12 28/66/12 26/75/12 30/80/12
f 33/81/7 34/82/7 36/83/7 35/84/7
f 35/85/8 36/86/8 40/87/8 39/88/8
f 39/89/9 40/90/9 38/91/9 37/92/9
f 37/93/10 38/94/10 34/95/10 33/96/10
f 35/85/11 39/97/11 37/98/11 33/96/11
f 40/99/12 36/86/12 34/95/12 38/100/12
f 41/101/7 42/102/7 44/103/7 43/104/7
f 43/105/8 44/106/8 48/107/8 47/108/8
f 47/109/9 48/110/9 46/111/9 45/112/9
f 45/113/10 46/114/10 42/115/10 41/116/10
f 43/105/11 47/117/11 45/118/11 41/116/11
f 48/119/12 44/106/12 42/115/12 46/120/12
o Cube.001_Cube.004
v -28.778290 0.110509 -14.629495
v -28.778290 18.398510 -14.629495
v -30.426205 0.110509 -14.629495
v -30.426205 18.398510 -14.629495
v -28.778290 0.110509 -20.246872
v -28.778290 18.398510 -20.246872
v -30.426205 0.110509 -20.246872
v -30.426205 18.398510 -20.246872
v -28.810066 0.234994 10.939003
v -28.810066 18.522995 10.939003
v -30.457983 0.234994 10.939003
v -30.457983 18.522995 10.939003
v -28.810066 0.234994 5.321629
v -28.810066 18.522995 5.321629
v -30.457983 0.234994 5.321629
v -30.457983 18.522995 5.321629
v -30.463533 0.061940 30.467842
v -30.463533 18.349941 30.467842
v -31.377934 0.061940 30.467842
v -31.377934 18.349941 30.467842
v -30.463537 0.061940 -30.492153
v -30.463537 18.349941 -30.492153
v -31.377937 0.061940 -30.492153
v -31.377937 18.349941 -30.492153
vt 0.000000 0.000000
vt 1.000000 0.000000
vt 1.000000 1.000000
vt 0.000000 1.000000
vt 0.000000 0.000000
vt 1.000000 0.000000
vt 1.000000 1.000000
vt 0.000000 1.000000
vt 0.000000 0.000000
vt 1.000000 0.000000
vt 1.000000 1.000000
vt 0.000000 1.000000
vt 0.000000 0.000000
vt 1.000000 0.000000
vt 1.000000 1.000000
vt 0.000000 1.000000
vt 1.000000 0.000000
vt 1.000000 1.000000
vt 0.000000 0.000000
vt 0.000000 1.000000
vt 0.000000 0.000000
vt 1.000000 0.000000
vt 1.000000 1.000000
vt 0.000000 1.000000
vt 0.000000 0.000000
vt 1.000000 0.000000
vt 1.000000 1.000000
vt 0.000000 1.000000
vt 0.000000 0.000000
vt 1.000000 0.000000
vt 1.000000 1.000000
vt 0.000000 1.000000
vt 0.000000 0.000000
vt 1.000000 0.000000
vt 1.000000 1.000000
vt 0.000000 1.000000
vt 1.000000 0.000000
vt 1.000000 1.000000
vt 0.000000 0.000000
vt 0.000000 1.000000
vt 0.000000 0.000000
vt 1.000000 0.000000
vt 1.000000 1.000000
vt 0.000000 1.000000
vt 0.000000 0.000000
vt 1.000000 0.000000
vt 1.000000 1.000000
vt 0.000000 1.000000
vt 0.000000 0.000000
vt 1.000000 0.000000
vt 1.000000 1.000000
vt 0.000000 1.000000
vt 0.000000 0.000000
vt 1.000000 0.000000
vt 1.000000 1.000000
vt 0.000000 1.000000
vt 1.000000 0.000000
vt 1.000000 1.000000
vt 0.000000 0.000000
vt 0.000000 1.000000
vn 0.0000 0.0000 1.0000
vn -1.0000 0.0000 0.0000
vn 0.0000 0.0000 -1.0000
vn 1.0000 0.0000 0.0000
vn 0.0000 -1.0000 0.0000
vn 0.0000 1.0000 0.0000
usemtl Material.002
s off
f 49/121/13 50/122/13 52/123/13 51/124/13
f 51/125/14 52/126/14 56/127/14 55/128/14
f 55/129/15 56/130/15 54/131/15 53/132/15
f 53/133/16 54/134/16 50/135/16 49/136/16
f 51/125/17 55/137/17 53/138/17 49/136/17
f 56/139/18 52/126/18 50/135/18 54/140/18
f 57/141/13 58/142/13 60/143/13 59/144/13
f 59/145/14 60/146/14 64/147/14 63/148/14
f 63/149/15 64/150/15 62/151/15 61/152/15
f 61/153/16 62/154/16 58/155/16 57/156/16
f 59/145/17 63/157/17 61/158/17 57/156/17
f 64/159/18 60/146/18 58/155/18 62/160/18
f 65/161/13 66/162/13 68/163/13 67/164/13
f 67/165/14 68/166/14 72/167/14 71/168/14
f 71/169/15 72/170/15 70/171/15 69/172/15
f 69/173/16 70/174/16 66/175/16 65/176/16
f 67/165/17 71/177/17 69/178/17 65/176/17
f 72/179/18 68/166/18 66/175/18 70/180/18
o Cube.003
v 14.547568 0.192667 -27.910418
v 14.547568 18.480667 -27.910418
v 14.547568 0.192667 -29.558332
v 14.547568 18.480667 -29.558332
v 20.164946 0.192667 -27.910418
v 20.164946 18.480667 -27.910418
v 20.164946 0.192667 -29.558332
v 20.164946 18.480667 -29.558332
v -11.020929 0.317152 -27.942196
v -11.020929 18.605152 -27.942196
v -11.020929 0.317152 -29.590111
v -11.020929 18.605152 -29.590111
v -5.403555 0.317152 -27.942196
v -5.403555 18.605152 -27.942196
v -5.403555 0.317152 -29.590111
v -5.403555 18.605152 -29.590111
v -30.549768 0.144098 -29.595665
v -30.549768 18.432098 -29.595665
v -30.549768 0.144098 -30.510063
v -30.549768 18.432098 -30.510063
v 30.410227 0.144098 -29.595665
v 30.410227 18.432098 -29.595665
v 30.410227 0.144098 -30.510063
v 30.410227 18.432098 -30.510063
vt 0.000000 0.000000
vt 1.000000 0.000000
vt 1.000000 1.000000
vt 0.000000 1.000000
vt 0.000000 0.000000
vt 1.000000 0.000000
vt 1.000000 1.000000
vt 0.000000 1.000000
vt 0.000000 0.000000
vt 1.000000 0.000000
vt 1.000000 1.000000
vt 0.000000 1.000000
vt 0.000000 0.000000
vt 1.000000 0.000000
vt 1.000000 1.000000
vt 0.000000 1.000000
vt 1.000000 0.000000
vt 1.000000 1.000000
vt 0.000000 0.000000
vt 0.000000 1.000000
vt 0.000000 0.000000
vt 1.000000 0.000000
vt 1.000000 1.000000
vt 0.000000 1.000000
vt 0.000000 0.000000
vt 1.000000 0.000000
vt 1.000000 1.000000
vt 0.000000 1.000000
vt 0.000000 0.000000
vt 1.000000 0.000000
vt 1.000000 1.000000
vt 0.000000 1.000000
vt 0.000000 0.000000
vt 1.000000 0.000000
vt 1.000000 1.000000
vt 0.000000 1.000000
vt 1.000000 0.000000
vt 1.000000 1.000000
vt 0.000000 0.000000
vt 0.000000 1.000000
vt 0.000000 0.000000
vt 1.000000 0.000000
vt 1.000000 1.000000
vt 0.000000 1.000000
vt 0.000000 0.000000
vt 1.000000 0.000000
vt 1.000000 1.000000
vt 0.000000 1.000000
vt 0.000000 0.000000
vt 1.000000 0.000000
vt 1.000000 1.000000
vt 0.000000 1.000000
vt 0.000000 0.000000
vt 1.000000 0.000000
vt 1.000000 1.000000
vt 0.000000 1.000000
vt 1.000000 0.000000
vt 1.000000 1.000000
vt 0.000000 0.000000
vt 0.000000 1.000000
vn -1.0000 0.0000 0.0000
vn 0.0000 0.0000 -1.0000
vn 1.0000 0.0000 0.0000
vn 0.0000 0.0000 1.0000
vn 0.0000 -1.0000 0.0000
vn 0.0000 1.0000 0.0000
usemtl Material.002
s off
f 73/181/19 74/182/19 76/183/19 75/184/19
f 75/185/20 76/186/20 80/187/20 79/188/20
f 79/189/21 80/190/21 78/191/21 77/192/21
f 77/193/22 78/194/22 74/195/22 73/196/22
f 75/185/23 79/197/23 77/198/23 73/196/23
f 80/199/24 76/186/24 74/195/24 78/200/24
f 81/201/19 82/202/19 84/203/19 83/204/19
f 83/205/20 84/206/20 88/207/20 87/208/20
f 87/209/21 88/210/21 86/211/21 85/212/21
f 85/213/22 86/214/22 82/215/22 81/216/22
f 83/205/23 87/217/23 85/218/23 81/216/23
f 88/219/24 84/206/24 82/215/24 86/220/24
f 89/221/19 90/222/19 92/223/19 91/224/19
f 91/225/20 92/226/20 96/227/20 95/228/20
f 95/229/21 96/230/21 94/231/21 93/232/21
f 93/233/22 94/234/22 90/235/22 89/236/22
f 91/225/23 95/237/23 93/238/23 89/236/23
f 96/239/24 92/226/24 90/235/24 94/240/24
o Cube
v 91.439957 -0.327379 -91.439949
v 91.439957 -0.327379 91.439957
v -91.439964 -0.327379 91.439934
v -91.439919 -0.327379 -91.439987
v 91.440002 0.327379 -91.439903
v 91.439896 0.327379 91.440010
v -91.439987 0.327379 91.439919
v -91.439949 0.327379 -91.439957
vt 0.000000 0.000000
vt 1.000000 0.000000
vt 1.000000 1.000000
vt 0.000000 1.000000
vt 0.000000 0.000000
vt 1.000000 0.000000
vt 1.000000 1.000000
vt 0.000000 1.000000
vt 1.000000 0.000000
vt 1.000000 1.000000
vt 0.000000 1.000000
vt 0.000000 0.000000
vt 1.000000 0.000000
vt 0.000000 1.000000
vt 0.000000 0.000000
vt 1.000000 0.000000
vt 1.000000 1.000000
vt 1.000000 0.000000
vt 1.000000 1.000000
vt 0.000000 1.000000
vn 0.0000 -1.0000 0.0000
vn 0.0000 1.0000 -0.0000
vn 1.0000 0.0000 0.0000
vn -0.0000 -0.0000 1.0000
vn -1.0000 -0.0001 -0.0000
vn 0.0000 0.0001 -1.0000
usemtl Material.001
s off
f 97/241/25 98/242/25 99/243/25 100/244/25
f 101/245/26 104/246/26 103/247/26 102/248/26
f 97/241/27 101/249/27 102/250/27 98/251/27
f 98/252/28 102/253/28 103/247/28 99/254/28
f 99/255/29 103/256/29 104/257/29 100/244/29
f 101/245/30 97/258/30 100/259/30 104/260/30
