# Blender v2.79 (sub 0) OBJ File: 'plane-trial1.blend'
# www.blender.org
mtllib stall1.mtl
o Cube.009_Cube.010
v -29.216089 7.334996 10.043663
v -29.216089 16.478996 10.043663
v -29.216089 7.334996 -3.672338
v -29.216089 16.478996 -3.672338
v -28.911291 7.334996 10.043663
v -28.911291 16.478996 10.043663
v -28.911291 7.334996 -3.672338
v -28.911291 16.478996 -3.672338
vn -1.0000 0.0000 0.0000
vn 0.0000 0.0000 -1.0000
vn 1.0000 0.0000 0.0000
vn 0.0000 0.0000 1.0000
vn 0.0000 -1.0000 0.0000
vn 0.0000 1.0000 0.0000
usemtl TV
s off
f 1//1 2//1 4//1 3//1
f 3//2 4//2 8//2 7//2
f 7//3 8//3 6//3 5//3
f 5//4 6//4 2//4 1//4
f 3//5 7//5 5//5 1//5
f 8//6 4//6 2//6 6//6
o Cube.001_Cube.002
v -29.181545 0.045979 30.566570
v -29.181545 18.333981 30.566570
v -30.705545 0.045979 30.566570
v -30.705545 18.333981 30.566570
v -29.181536 0.045979 -30.393429
v -29.181536 18.333981 -30.393429
v -30.705536 0.045979 -30.393429
v -30.705536 18.333981 -30.393429
vn 0.0000 0.0000 1.0000
vn -1.0000 0.0000 -0.0000
vn 0.0000 0.0000 -1.0000
vn 1.0000 0.0000 0.0000
vn 0.0000 -1.0000 -0.0000
vn 0.0000 1.0000 0.0000
usemtl Material.002
s off
f 9//7 10//7 12//7 11//7
f 11//8 12//8 16//8 15//8
f 15//9 16//9 14//9 13//9
f 13//10 14//10 10//10 9//10
f 11//11 15//11 13//11 9//11
f 16//12 12//12 10//12 14//12
o Cube.005_Cube.001
v -30.752125 0.254451 30.994553
v -30.752125 0.864051 30.994553
v -30.752125 0.254451 -29.965446
v -30.752125 0.864051 -29.965446
v 30.207874 0.254451 30.994553
v 30.207874 0.864051 30.994553
v 30.207874 0.254451 -29.965446
v 30.207874 0.864051 -29.965446
vn -1.0000 0.0000 0.0000
vn 0.0000 0.0000 -1.0000
vn 1.0000 0.0000 0.0000
vn 0.0000 0.0000 1.0000
vn 0.0000 -1.0000 0.0000
vn 0.0000 1.0000 0.0000
usemtl Material
s off
f 17//13 18//13 20//13 19//13
f 19//14 20//14 24//14 23//14
f 23//15 24//15 22//15 21//15
f 21//16 22//16 18//16 17//16
f 19//17 23//17 21//17 17//17
f 24//18 20//18 18//18 22//18
o Cube.004_Cube.006
v -14.773477 3.554703 28.519232
v -14.773477 13.294885 28.519232
v -14.773477 3.554703 30.167147
v -14.773477 13.294885 30.167147
v -20.390854 3.554703 28.519232
v -20.390854 13.294885 28.519232
v -20.390854 3.554703 30.167147
v -20.390854 13.294885 30.167147
v 10.795021 2.740942 28.551006
v 10.795021 13.928622 28.551006
v 10.795021 2.740942 30.198923
v 10.795021 13.928622 30.198923
v 5.177647 2.740942 28.551008
v 5.177647 13.928622 28.551008
v 5.177647 2.740942 30.198923
v 5.177647 13.928622 30.198923
v 30.323860 0.040992 30.204473
v 30.323860 18.328991 30.204473
v 30.323860 0.040992 31.118874
v 30.323860 18.328991 31.118874
v -30.636135 0.040992 30.204479
v -30.636135 18.328991 30.204479
v -30.636135 0.040992 31.118879
v -30.636135 18.328991 31.118879
vt 0.000000 0.000000
vt 1.000000 0.000000
vt 1.000000 1.000000
vt 0.000000 1.000000
vt 0.000000 0.000000
vt 1.000000 0.000000
vt 1.000000 1.000000
vt 0.000000 1.000000
vt 1.000000 0.000000
vt 1.000000 1.000000
vt 0.000000 1.000000
vt 0.000000 0.000000
vt 1.000000 0.000000
vt 1.000000 1.000000
vt 0.000000 1.000000
vt 0.000000 0.000000
vt 1.000000 0.000000
vt 1.000000 1.000000
vt 0.000000 1.000000
vt 1.000000 0.000000
vt 1.000000 1.000000
vt 0.000000 1.000000
vt 0.000000 0.000000
vt 1.000000 0.000000
vt 1.000000 1.000000
vt 0.000000 1.000000
vt 0.000000 0.000000
vt 1.000000 0.000000
vt 1.000000 1.000000
vt 0.000000 1.000000
vt 0.000000 0.000000
vt 1.000000 0.000000
vt 1.000000 1.000000
vt 0.000000 1.000000
vt 0.000000 0.000000
vt 1.000000 0.000000
vt 1.000000 1.000000
vt 0.000000 1.000000
vt 1.000000 0.000000
vt 1.000000 1.000000
vt 0.000000 0.000000
vt 0.000000 1.000000
vt 0.000000 0.000000
vt 1.000000 0.000000
vt 1.000000 1.000000
vt 0.000000 1.000000
vt 0.000000 0.000000
vt 1.000000 0.000000
vt 1.000000 1.000000
vt 0.000000 0.000000
vt 0.000000 1.000000
vt 0.000000 0.000000
vt 1.000000 0.000000
vt 1.000000 1.000000
vt 0.000000 1.000000
vt 0.000000 0.000000
vt 1.000000 0.000000
vt 1.000000 1.000000
vt 0.000000 0.000000
vt 0.000000 1.000000
vn 0.0000 0.0000 1.0000
vn -1.0000 0.0000 0.0000
vn 0.0000 -1.0000 0.0000
vn 1.0000 0.0000 0.0000
vn -0.0000 0.0000 -1.0000
vn 0.0000 1.0000 0.0000
usemtl Material.002
s off
f 27/1/19 28/2/19 32/3/19 31/4/19
f 31/5/20 32/6/20 30/7/20 29/8/20
f 27/1/21 31/9/21 29/10/21 25/11/21
f 35/12/19 36/13/19 40/14/19 39/15/19
f 39/16/20 40/17/20 38/18/20 37/19/20
f 35/12/21 39/20/21 37/21/21 33/22/21
f 41/23/22 42/24/22 44/25/22 43/26/22
f 43/27/19 44/28/19 48/29/19 47/30/19
f 47/31/20 48/32/20 46/33/20 45/34/20
f 45/35/23 46/36/23 42/37/23 41/38/23
f 43/27/21 47/39/21 45/40/21 41/38/21
f 48/41/24 44/28/24 42/37/24 46/42/24
usemtl Material.003
f 25/43/22 26/44/22 28/45/22 27/46/22
f 29/47/23 30/48/23 26/49/23 25/11/23
f 32/50/24 28/2/24 26/49/24 30/51/24
f 33/52/22 34/53/22 36/54/22 35/55/22
f 37/56/23 38/57/23 34/58/23 33/22/23
f 40/59/24 36/13/24 34/58/24 38/60/24
o Cube.003
v 14.547568 3.266239 -27.910418
v 14.547568 14.352457 -27.910418
v 14.547568 3.266239 -29.558332
v 14.547568 14.352457 -29.558332
v 20.164946 3.266239 -27.910418
v 20.164946 14.352457 -27.910418
v 20.164946 3.266239 -29.558332
v 20.164946 14.352457 -29.558332
v -11.020929 3.965425 -27.942196
v -11.020929 14.247142 -27.942196
v -11.020929 3.965425 -29.590111
v -11.020929 14.247142 -29.590111
v -5.403555 3.965425 -27.942196
v -5.403555 14.247142 -27.942196
v -5.403555 3.965425 -29.590111
v -5.403555 14.247142 -29.590111
v -30.549768 0.144098 -29.595665
v -30.549768 18.432098 -29.595665
v -30.549768 0.144098 -30.510063
v -30.549768 18.432098 -30.510063
v 30.410227 0.144098 -29.595665
v 30.410227 18.432098 -29.595665
v 30.410227 0.144098 -30.510063
v 30.410227 18.432098 -30.510063
vt 0.000000 0.000000
vt 1.000000 0.000000
vt 1.000000 1.000000
vt 0.000000 1.000000
vt 0.000000 0.000000
vt 1.000000 0.000000
vt 1.000000 1.000000
vt 0.000000 1.000000
vt 1.000000 0.000000
vt 1.000000 1.000000
vt 0.000000 1.000000
vt 0.000000 0.000000
vt 1.000000 0.000000
vt 1.000000 1.000000
vt 0.000000 1.000000
vt 0.000000 0.000000
vt 1.000000 0.000000
vt 1.000000 1.000000
vt 0.000000 1.000000
vt 1.000000 0.000000
vt 1.000000 1.000000
vt 0.000000 1.000000
vt 0.000000 0.000000
vt 1.000000 0.000000
vt 1.000000 1.000000
vt 0.000000 1.000000
vt 0.000000 0.000000
vt 1.000000 0.000000
vt 1.000000 1.000000
vt 0.000000 1.000000
vt 0.000000 0.000000
vt 1.000000 0.000000
vt 1.000000 1.000000
vt 0.000000 1.000000
vt 0.000000 0.000000
vt 1.000000 0.000000
vt 1.000000 1.000000
vt 0.000000 1.000000
vt 1.000000 0.000000
vt 1.000000 1.000000
vt 0.000000 0.000000
vt 0.000000 1.000000
vt 0.000000 0.000000
vt 1.000000 0.000000
vt 1.000000 1.000000
vt 0.000000 1.000000
vt 0.000000 0.000000
vt 1.000000 0.000000
vt 1.000000 1.000000
vt 0.000000 0.000000
vt 0.000000 1.000000
vt 0.000000 0.000000
vt 1.000000 0.000000
vt 1.000000 1.000000
vt 0.000000 1.000000
vt 0.000000 0.000000
vt 1.000000 0.000000
vt 1.000000 1.000000
vt 0.000000 0.000000
vt 0.000000 1.000000
vn -1.0000 0.0000 0.0000
vn 0.0000 0.0000 -1.0000
vn 0.0000 -1.0000 0.0000
vn 1.0000 0.0000 0.0000
vn 0.0000 0.0000 1.0000
vn 0.0000 1.0000 0.0000
usemtl Material.002
s off
f 49/61/25 50/62/25 52/63/25 51/64/25
f 51/65/26 52/66/26 56/67/26 55/68/26
f 51/65/27 55/69/27 53/70/27 49/71/27
f 57/72/25 58/73/25 60/74/25 59/75/25
f 59/76/26 60/77/26 64/78/26 63/79/26
f 59/76/27 63/80/27 61/81/27 57/82/27
f 65/83/25 66/84/25 68/85/25 67/86/25
f 67/87/26 68/88/26 72/89/26 71/90/26
f 71/91/28 72/92/28 70/93/28 69/94/28
f 69/95/29 70/96/29 66/97/29 65/98/29
f 67/87/27 71/99/27 69/100/27 65/98/27
f 72/101/30 68/88/30 66/97/30 70/102/30
usemtl Material.003
f 55/103/28 56/104/28 54/105/28 53/106/28
f 53/107/29 54/108/29 50/109/29 49/71/29
f 56/110/30 52/66/30 50/109/30 54/111/30
f 63/112/28 64/113/28 62/114/28 61/115/28
f 61/116/29 62/117/29 58/118/29 57/82/29
f 64/119/30 60/77/30 58/118/30 62/120/30
